PathFileType	4	(X/Y/Z)	Run_500 04
DataRate	CameraRate	NumFrames	NumMarkers	Units	OrigDataRate	OrigDataStartFrame	OrigNumFrames
100	100	4	41	mm	100	8	125
Frame#	Time	RASI			RPSI			RTH1			RTH2			RTH3			LTH1			LTH2			LTH3			RTB1			RTB2			RTB3			LTB1			LTB2			LTB3			RCAL			RTOE			RMT5			LCAL			LTOE			LACR			RACR			CLAV			C7			RUA1			RUA2			RUA3			RLEL			RMEL			LUA1			LUA2			LUA3			LLEL			LMEL			RFAsuperior			RFAradius			RFAulna			LFAsuperior			LFAradius			LFAulna			LPSI			LASI		
		X1	Y1	Z1	X2	Y2	Z2	X3	Y3	Z3	X4	Y4	Z4	X5	Y5	Z5	X6	Y6	Z6	X7	Y7	Z7	X8	Y8	Z8	X9	Y9	Z9	X10	Y10	Z10	X11	Y11	Z11	X12	Y12	Z12	X13	Y13	Z13	X14	Y14	Z14	X15	Y15	Z15	X16	Y16	Z16	X17	Y17	Z17	X18	Y18	Z18	X19	Y19	Z19	X20	Y20	Z20	X21	Y21	Z21	X22	Y22	Z22	X23	Y23	Z23	X24	Y24	Z24	X25	Y25	Z25	X26	Y26	Z26	X27	Y27	Z27	X28	Y28	Z28	X29	Y29	Z29	X30	Y30	Z30	X31	Y31	Z31	X32	Y32	Z32	X33	Y33	Z33	X34	Y34	Z34	X35	Y35	Z35	X36	Y36	Z36	X37	Y37	Z37	X38	Y38	Z38	X39	Y39	Z39	X40	Y40	Z40	X41	Y41	Z41	

8	  0.080000	1090.212459	943.568937	-276.341672	922.901054	1007.903485	-354.759209	1073.962985	778.051021	-233.763429	1151.736472	704.961263	-239.154090	1146.292786	562.058091	-254.661738	1010.727154	821.559670	-600.303990	1088.402587	693.769612	-586.068414	1032.042184	572.894141	-556.410991	1044.522285	425.789383	-332.019951	944.849903	470.555185	-282.186003	868.735444	448.856953	-340.614848	1019.307696	300.431992	-448.734901	960.826432	255.430198	-483.337889	935.391860	194.316622	-415.168115	763.138701	565.596504	-338.894147	756.731770	328.931465	-335.699294	740.152629	334.004366	-258.735162	760.564850	121.551403	-377.855002	993.297999	 71.081558	-378.039557	1158.289908	1461.709313	-571.798812	1131.476496	1442.059511	-227.407810	1186.294226	1383.033341	-367.780640	1092.431482	1492.691614	-404.370040	1031.771662	1336.220180	-155.840292	961.306876	1348.541564	-168.983812	951.175684	1279.969360	-143.305192	893.319903	1223.949153	-120.199574	873.824510	1215.860468	-209.796528	1085.266755	1364.635304	-654.521846	995.899472	1326.852388	-645.715671	1019.696285	1257.634824	-687.795151	991.716929	1201.874899	-716.628019	960.296220	1170.965913	-634.893959	964.363487	1163.772825	-116.557101	1081.770594	1050.800637	-160.342734	1029.652426	1010.952671	-130.302748	1074.711544	1169.016978	-715.416232	1226.872918	1132.212982	-641.995688	1217.947076	1075.526152	-686.479430	925.587631	1020.482535	-447.486456	1090.888778	965.502072	-537.524176	
9	  0.090000	1090.300321	946.175633	-277.242096	922.980484	1011.716930	-355.571922	1079.038690	786.847600	-232.756347	1162.803329	722.373332	-240.557291	1169.393646	580.088700	-256.372207	1002.773153	821.542957	-599.319232	1073.970192	689.964838	-584.066008	1007.795529	571.583722	-556.211487	1079.627158	432.545463	-331.952516	975.476592	467.305474	-282.919012	902.632948	438.329373	-342.202366	977.494832	298.945459	-449.827216	916.827365	256.830811	-484.457507	889.707729	195.812907	-416.220231	782.443404	540.229744	-339.651995	807.194221	305.495636	-330.919130	790.882654	310.331921	-253.773007	712.996179	129.365822	-381.005878	943.494598	 70.000340	-377.565002	1163.890869	1465.932337	-569.567238	1123.680342	1447.903059	-227.208902	1185.076558	1387.287293	-365.027542	1092.006906	1496.062924	-405.592069	1018.472474	1347.731036	-157.729495	949.985874	1361.854948	-175.991838	936.514084	1293.880269	-148.364500	876.403375	1240.080840	-127.442647	857.782757	1233.957117	-217.620782	1097.254297	1366.169583	-654.000770	1008.386303	1326.776560	-647.139932	1034.117462	1257.965664	-688.151730	1008.841702	1200.528229	-716.770823	977.240547	1170.289508	-634.513297	945.677477	1179.814164	-121.568511	1062.227264	1065.088260	-161.735970	1009.249484	1026.469228	-132.588501	1093.854140	1172.050487	-711.452135	1244.568524	1147.033999	-630.208283	1241.682068	1089.730217	-674.406483	925.314601	1023.111307	-448.245336	1090.143407	965.054040	-538.720456	
10	  0.100000	1090.688516	950.585146	-277.662619	923.717608	1016.192200	-356.721024	1084.319757	797.233957	-232.020777	1172.370828	740.548462	-242.600592	1190.301837	599.301825	-258.515681	996.694838	822.295929	-598.268731	1058.939773	686.699708	-582.338706	982.058772	572.360177	-555.976142	1113.615988	439.998178	-332.601402	1005.413136	463.882601	-284.082053	936.755315	425.791202	-342.408933	935.920548	299.576723	-451.394386	873.195616	260.243123	-485.967138	844.777367	199.160871	-417.746949	803.065176	512.080089	-340.789823	859.987686	282.872346	-327.282759	843.760428	287.173552	-249.970515	666.963145	139.341174	-384.321365	893.943620	 68.682807	-377.234719	1169.137215	1471.342588	-567.029537	1116.785064	1454.606198	-227.223473	1184.022902	1392.642275	-362.190969	1091.667114	1500.306742	-406.596693	1006.416716	1360.363179	-160.078262	940.050033	1376.081746	-183.061974	923.021742	1308.737810	-153.668106	860.522718	1257.310032	-135.017381	843.463497	1252.510393	-225.818670	1108.518171	1369.040317	-652.925285	1019.825341	1328.326778	-648.423186	1048.097604	1259.745622	-688.031412	1025.375608	1200.815388	-716.508299	992.781575	1171.272471	-633.919435	928.195281	1196.936632	-126.870500	1044.018200	1080.482858	-163.579767	990.215853	1043.135435	-135.108996	1111.951191	1176.970675	-706.759536	1260.185074	1163.453428	-618.002714	1263.180961	1105.247864	-660.727514	926.038078	1026.086435	-449.537504	1090.320605	965.090167	-539.847965	
11	  0.110000	1091.958516	957.099713	-278.009430	925.530602	1021.631295	-358.496203	1089.757907	809.790186	-231.680418	1179.811386	759.639678	-245.284607	1207.881960	619.853705	-261.204793	993.225533	823.816130	-597.140432	1043.341541	684.569144	-580.914295	955.089278	576.313084	-555.863539	1145.751629	448.140491	-334.253223	1034.478433	459.877956	-285.869914	971.373125	411.009351	-341.648209	895.074516	303.496147	-453.821441	830.452679	266.838896	-488.206044	801.324455	205.322335	-420.182740	826.304259	480.115440	-342.575869	916.006442	261.866394	-325.507297	899.536692	265.156623	-248.029058	623.626502	152.460515	-387.967072	844.785233	 67.286641	-377.310407	1173.711007	1478.459717	-564.100122	1111.279535	1462.347628	-227.486138	1183.157201	1399.525815	-359.298047	1091.319721	1505.723416	-407.236432	996.345985	1374.406588	-163.031754	932.253121	1391.549874	-190.155928	911.371463	1325.039326	-159.312814	846.368406	1276.106938	-143.077432	831.919510	1271.749576	-234.566233	1118.479256	1373.983175	-651.104277	1029.897793	1332.069410	-649.630756	1061.355903	1263.638431	-687.275783	1040.944563	1203.478934	-715.660380	1006.241543	1174.651009	-633.075147	912.598343	1215.535880	-132.553637	1027.892445	1097.327949	-165.969012	973.241890	1061.271125	-138.039114	1128.313623	1184.469798	-701.166922	1272.645466	1181.843766	-605.362475	1281.148206	1122.385493	-645.075076	928.328144	1029.546103	-451.621575	1091.889606	965.603080	-540.715471	
